<?xml version="1.0" encoding="UTF-8"?><svg id="Capa_1" xmlns="http://www.w3.org/2000/svg" viewBox="0 0 651.512 101.87177"><defs><style>.cls-1{fill:#4b4196;}.cls-2{fill:#e55049;}</style></defs><rect class="cls-1" x="519.25847" width="20.48019" height="101.29392"/><polygon class="cls-1" points="568.83928 64.32594 605.51117 27.65404 576.54793 27.65404 554.35759 49.84432 539.87596 64.32594 554.35759 78.8077 576.86023 101.31041 605.82361 101.31041 568.83928 64.32594"/><polygon class="cls-2" points="614.52767 64.32594 651.19957 27.65404 622.23632 27.65404 600.04598 49.84432 585.56436 64.32594 600.04598 78.8077 622.54862 101.31041 651.512 101.31041 614.52767 64.32594"/><path class="cls-1" d="M350.14266,72.51097c-.02594.01895-.04648.1721-.06246.43127-.41181,6.68022,4.96232,12.29966,11.65522,12.29966h54.2865v16.60556l-51.23452.0235c-25.01015-1.56838-38.21148-16.56961-36.16201-41.7442,1.69761-20.85261,16.1278-31.21796,36.16201-32.47432,11.90726-.74671,20.90064-.93126,32.68386.03129,16.48755,1.34683,23.4631,11.26986,21.86712,27.38674-1.09711,11.07914-11.98577,17.44049-22.41286,17.44049h-46.78287ZM350.69618,56.45893h43.46176c1.85275,0,7.13217-1.41394,7.13217-5.9517,0-4.75388-2.93657-6.35325-7.65761-6.80731-7.88955-.75879-24.419-.93586-31.42407.7467-4.36018,1.04728-8.9646,4.50631-10.66897,8.70389-.23548.57994-1.19381,2.97512-.84327,3.30841Z"/><path class="cls-1" d="M258.19182.00002v28.22945h36.54362c10.35257,0,21.31047,8.78208,21.31047,19.64991v53.41456h-20.48019v-57.01243h-37.3739v56.18215l-.83028.83028h-19.64991V.00002h20.48019Z"/><path class="cls-1" d="M117.84784,27.67592v57.56596h-37.39582V27.67592h-20.48019v52.30754c0,13.77797,10.44158,20.5385,22.94755,21.33398,2.21103.14061,4.94133.27771,7.96183.37973,2.59043.08757,5.39495.14865,8.26873.16446,2.87378-.01581,5.6783-.07689,8.26873-.16446,3.0205-.10203,5.7508-.23912,7.96183-.37973,12.50596-.79548,22.94755-7.55602,22.94755-21.33398V27.67592h-20.48019Z"/><path class="cls-1" d="M19.92667,6.08872v21.58721h25.6756v16.60558h-25.6756v31.82733c0,.23552,0,9.13306,6.91898,9.13306h22.63124v16.05204h-29.55023s-18.17295.98647-19.92667-16.05204V6.08872h19.92667Z"/><path class="cls-1" d="M192.38885,44.2815h33.14538v-16.60556l-39.32199.00486c-23.70735.25162-35.70574,18.06828-36.10987,36.17662h-.00932c-.00223.10743.00135.21493-.00007.32237-.00436.29676-.00206.59325-.0002.89001.00203.26223.00307.52433.00993.78649.00304.12284.00054.24581.00466.36865h.01054c.62649,17.92274,12.62046,35.39276,36.09433,35.64196l39.32199.00486v-16.60556h-33.14538c-2.44002,0-20.53181-.63365-20.9902-20.49235.45838-19.8587,18.55017-20.49235,20.9902-20.49235Z"/><path class="cls-1" d="M473.83919,44.2815h33.14538v-16.60556l-39.32199.00486c-23.70735.25162-35.70574,18.06828-36.10987,36.17662h-.00932c-.00223.10743.00135.21493-.00007.32237-.00436.29676-.00206.59325-.0002.89001.00203.26223.00307.52433.00993.78649.00304.12284.00054.24581.00466.36865h.01054c.62649,17.92274,12.62046,35.39276,36.09433,35.64196l39.32199.00486v-16.60556h-33.14538c-2.44002,0-20.53181-.63365-20.9902-20.49235.45838-19.8587,18.55017-20.49235,20.9902-20.49235Z"/></svg>