<?xml version="1.0" encoding="UTF-8"?>
<svg id="Capa_1" xmlns="http://www.w3.org/2000/svg" version="1.1" viewBox="0 0 651.5 101.9">
  <!-- Generator: Adobe Illustrator 29.5.0, SVG Export Plug-In . SVG Version: 2.1.0 Build 137)  -->
  <defs>
    <style>
      .st0 {
        fill: #fff;
      }

      .st1 {
        fill: #e55049;
      }
    </style>
  </defs>
  <rect class="st0" x="519.3" width="20.5" height="101.3"/>
  <polygon class="st0" points="568.8 64.3 605.5 27.7 576.5 27.7 554.4 49.8 539.9 64.3 554.4 78.8 576.9 101.3 605.8 101.3 568.8 64.3"/>
  <polygon class="st1" points="614.5 64.3 651.2 27.7 622.2 27.7 600 49.8 585.6 64.3 600 78.8 622.5 101.3 651.5 101.3 614.5 64.3"/>
  <path class="st0" d="M350.1,72.5s0,.2,0,.4c-.4,6.7,5,12.3,11.7,12.3h54.3v16.6h-51.2c-25-1.5-38.2-16.5-36.2-41.7,1.7-20.9,16.1-31.2,36.2-32.5,11.9-.7,20.9-.9,32.7,0,16.5,1.3,23.5,11.3,21.9,27.4-1.1,11.1-12,17.4-22.4,17.4h-46.8,0ZM350.7,56.5h43.5c1.9,0,7.1-1.4,7.1-6s-2.9-6.4-7.7-6.8c-7.9-.8-24.4-.9-31.4.7-4.4,1-9,4.5-10.7,8.7-.2.6-1.2,3-.8,3.3Z"/>
  <path class="st0" d="M258.2,0v28.2h36.5c10.4,0,21.3,8.8,21.3,19.6v53.4h-20.5v-57h-37.4v56.2l-.8.8h-19.6V0h20.5Z"/>
  <path class="st0" d="M117.8,27.7v57.6h-37.4V27.7h-20.5v52.3c0,13.8,10.4,20.5,22.9,21.3,2.2.1,4.9.3,8,.4,2.6,0,5.4.1,8.3.2,2.9,0,5.7,0,8.3-.2,3-.1,5.8-.2,8-.4,12.5-.8,22.9-7.6,22.9-21.3V27.7h-20.5Z"/>
  <path class="st0" d="M19.9,6.1v21.6h25.7v16.6h-25.7v31.8c0,.2,0,9.1,6.9,9.1h22.6v16.1h-29.6S1.8,102.3,0,85.2V6.1h19.9Z"/>
  <path class="st0" d="M192.4,44.3h33.1v-16.6h-39.3c-23.7.3-35.7,18.1-36.1,36.2h0c0,.1,0,.2,0,.3,0,.3,0,.6,0,.9,0,.3,0,.5,0,.8,0,.1,0,.2,0,.4h0c.6,17.9,12.6,35.4,36.1,35.6h39.3s0-16.6,0-16.6h-33.1c-2.4,0-20.5-.6-21-20.5.5-19.9,18.6-20.5,21-20.5Z"/>
  <path class="st0" d="M473.8,44.3h33.1v-16.6h-39.3c-23.7.3-35.7,18.1-36.1,36.2h0c0,.1,0,.2,0,.3,0,.3,0,.6,0,.9,0,.3,0,.5,0,.8,0,.1,0,.2,0,.4h0c.6,17.9,12.6,35.4,36.1,35.6h39.3s0-16.6,0-16.6h-33.1c-2.4,0-20.5-.6-21-20.5.5-19.9,18.6-20.5,21-20.5Z"/>
</svg>